# xmcd
#
# Track frame offsets: 
#        150
#        16092
#        33667
#        50315
#        63215
#        82237
#        101632
#        118262
#        134700
#        146725
#        161265
#        174962
#
# Disc length: 2590 seconds
#
# Revision: 3
# Processed by: cddbd v1.5.2PL0 Copyright (c) Steve Scherf et al.
# Submitted via: ExactAudioCopy v1.3
#
DISCID=a30a1c0c
DTITLE=Kenny Rogers - Greatest Hits
DYEAR=1980
DGENRE=Country
TTITLE0=The Gambler
TTITLE1=Lady
TTITLE2=Don't Fall In Love With A Dreamer (Duet with Kim Carnes)
TTITLE3=Ruby Don't Take Your Love To Town
TTITLE4=She Believes In Me
TTITLE5=Coward Of The County
TTITLE6=Lucille
TTITLE7=You Decorated My Life
TTITLE8=Reuben James
TTITLE9=Love The World Away
TTITLE10=Every Time Two Fools Collide (Duet with Dottie West)
TTITLE11=Long Arm Of The Law
EXTD=ID3G:   2
EXTT0=
EXTT1=
EXTT2=
EXTT3=
EXTT4=
EXTT5=
EXTT6=
EXTT7=w
EXTT8=
EXTT9=
EXTT10=
EXTT11=
PLAYORDER=
